<svg id="g2253" xmlns="http://www.w3.org/2000/svg" xmlns:xlink="http://www.w3.org/1999/xlink" width="24.02" height="24.02" viewBox="0 0 24.02 24.02">
  <defs>
    <clipPath id="clip-path">
      <path id="path2279" d="M0-682.665H24.02v24.02H0Z" transform="translate(0 682.665)" fill="#253d91"/>
    </clipPath>
  </defs>
  <g id="g2255" transform="translate(3.133 8.868)">
    <path id="path2257" d="M0,0H9.007" transform="translate(0 0)" fill="none" stroke="#253d91" stroke-linecap="round" stroke-linejoin="round" stroke-width="1"/>
  </g>
  <g id="g2259" transform="translate(3.133 11.34)">
    <path id="path2261" d="M0,0H9.007" fill="none" stroke="#253d91" stroke-linecap="round" stroke-linejoin="round" stroke-width="1"/>
  </g>
  <g id="g2263" transform="translate(3.133 13.812)">
    <path id="path2265" d="M0,0H9.007" transform="translate(0 0)" fill="none" stroke="#253d91" stroke-linecap="round" stroke-linejoin="round" stroke-width="1"/>
  </g>
  <g id="g2267" transform="translate(3.133 16.284)">
    <path id="path2269" d="M0,0H9.007" fill="none" stroke="#253d91" stroke-linecap="round" stroke-linejoin="round" stroke-width="1"/>
  </g>
  <g id="g2271" transform="translate(3.133 19.907)">
    <path id="path2273" d="M0,0H4.515" fill="none" stroke="#253d91" stroke-linecap="round" stroke-linejoin="round" stroke-width="1"/>
  </g>
  <g id="g2275" transform="translate(0 0)">
    <g id="g2277" clip-path="url(#clip-path)">
      <g id="g2283" transform="translate(0.482 0.353)">
        <path id="path2285" d="M-227.854-121.78h-.61a.437.437,0,0,1-.437-.437v-1.142a.437.437,0,0,1,.437-.437h7.223a.437.437,0,0,1,.437.437v1.142a.437.437,0,0,1-.437.437h-4.968m8.388,1.632v-4.684a1.389,1.389,0,0,0-1.389-1.389h-11.936a1.389,1.389,0,0,0-.982.407l-3.627,3.627a1.389,1.389,0,0,0-.407.982v16.911a1.389,1.389,0,0,0,1.389,1.389h15.564a1.389,1.389,0,0,0,1.389-1.389v-.474" transform="translate(236.163 126.221)" fill="none" stroke="#253d91" stroke-linecap="round" stroke-linejoin="round" stroke-width="1"/>
      </g>
      <g id="g2287" transform="translate(16.725 17.122)">
        <path id="path2289" d="M0,0V3.554a.4.4,0,0,0,.6.336L1.892,3.1a.395.395,0,0,1,.414,0L3.6,3.89a.4.4,0,0,0,.6-.336V0" fill="none" stroke="#253d91" stroke-linecap="round" stroke-linejoin="round" stroke-width="1"/>
      </g>
      <g id="g2291" transform="translate(14.113 8.07)">
        <path id="path2293" d="M-129.194-205.55a2.6,2.6,0,0,1-2.6-2.6,2.6,2.6,0,0,1,2.6-2.6,2.6,2.6,0,0,1,2.6,2.6A2.6,2.6,0,0,1-129.194-205.55Zm4.528-2a1.055,1.055,0,0,1,0-1.188,1.055,1.055,0,0,0-.516-1.587,1.055,1.055,0,0,1-.7-.961,1.055,1.055,0,0,0-1.35-.981,1.055,1.055,0,0,1-1.13-.367,1.049,1.049,0,0,0-.834-.409,1.049,1.049,0,0,0-.834.409,1.055,1.055,0,0,1-1.13.367,1.055,1.055,0,0,0-1.35.981,1.055,1.055,0,0,1-.7.961,1.055,1.055,0,0,0-.516,1.587,1.055,1.055,0,0,1,0,1.188,1.055,1.055,0,0,0,.516,1.587,1.055,1.055,0,0,1,.7.961h0a1.055,1.055,0,0,0,1.215,1.011,1.06,1.06,0,0,0,.135-.03,1.055,1.055,0,0,1,1.13.367,1.055,1.055,0,0,0,1.669,0,1.055,1.055,0,0,1,1.13-.367,1.061,1.061,0,0,0,.135.03A1.055,1.055,0,0,0-125.88-205h0a1.055,1.055,0,0,1,.7-.961A1.055,1.055,0,0,0-124.666-207.553Z" transform="translate(133.906 213.046)" fill="none" stroke="#253d91" stroke-linecap="round" stroke-linejoin="round" stroke-width="1"/>
      </g>
      <g id="g2295" transform="translate(16.227 10.373)">
        <path id="path2297" d="M-71.208,0a2.6,2.6,0,0,0-2.6,2.6,2.6,2.6,0,0,0,2.6,2.6,2.6,2.6,0,0,0,2.6-2.6A2.6,2.6,0,0,0-71.208,0Z" transform="translate(73.805)" fill="none" stroke="#253d91" stroke-linecap="round" stroke-linejoin="round" stroke-width="1"/>
      </g>
      <g id="g2299" transform="translate(0.607 0.478)">
        <path id="path2301" d="M-118.358,0V3.455a.861.861,0,0,1-.861.861h-3.455" transform="translate(122.674)" fill="none" stroke="#253d91" stroke-linecap="round" stroke-linejoin="round" stroke-width="1"/>
      </g>
    </g>
  </g>
</svg>
